<svg width="53" height="18" viewBox="0 0 53 18" fill="none" xmlns="http://www.w3.org/2000/svg">
<path d="M1.28 18C1.104 18 0.96 17.944 0.848 17.832C0.736 17.72 0.68 17.576 0.68 17.4V1.8C0.68 1.624 0.736 1.48 0.848 1.368C0.96 1.256 1.104 1.2 1.28 1.2H3.824C4.096 1.2 4.288 1.264 4.4 1.392C4.528 1.504 4.608 1.592 4.64 1.656L10.496 10.896V1.8C10.496 1.624 10.552 1.48 10.664 1.368C10.776 1.256 10.92 1.2 11.096 1.2H13.976C14.152 1.2 14.296 1.256 14.408 1.368C14.52 1.48 14.576 1.624 14.576 1.8V17.4C14.576 17.56 14.52 17.704 14.408 17.832C14.296 17.944 14.152 18 13.976 18H11.408C11.152 18 10.96 17.936 10.832 17.808C10.72 17.68 10.648 17.592 10.616 17.544L4.76 8.664V17.4C4.76 17.576 4.704 17.72 4.592 17.832C4.48 17.944 4.336 18 4.16 18H1.28ZM22.9674 18C22.7914 18 22.6394 17.944 22.5114 17.832C22.3994 17.72 22.3434 17.576 22.3434 17.4V15.696C22.3434 15.584 22.3754 15.416 22.4394 15.192C22.5034 14.952 22.6714 14.728 22.9434 14.52L25.4394 12.072C26.7194 11.096 27.7674 10.272 28.5834 9.6C29.4154 8.912 30.0314 8.304 30.4314 7.776C30.8314 7.248 31.0314 6.752 31.0314 6.288C31.0314 5.744 30.8874 5.296 30.5994 4.944C30.3274 4.576 29.8474 4.392 29.1594 4.392C28.6954 4.392 28.3034 4.496 27.9834 4.704C27.6794 4.896 27.4474 5.152 27.2874 5.472C27.1274 5.792 27.0154 6.12 26.9514 6.456C26.8874 6.664 26.7754 6.808 26.6154 6.888C26.4714 6.968 26.3114 7.008 26.1354 7.008H23.1354C22.9914 7.008 22.8714 6.96 22.7754 6.864C22.6794 6.768 22.6314 6.648 22.6314 6.504C22.6474 5.736 22.8074 5.016 23.1114 4.344C23.4314 3.672 23.8714 3.08 24.4314 2.568C25.0074 2.04 25.6874 1.632 26.4714 1.344C27.2714 1.056 28.1674 0.912 29.1594 0.912C30.5194 0.912 31.6714 1.128 32.6154 1.56C33.5754 1.992 34.3034 2.6 34.7994 3.384C35.2954 4.152 35.5434 5.056 35.5434 6.096C35.5434 6.88 35.3674 7.616 35.0154 8.304C34.6794 8.976 34.1914 9.624 33.5514 10.248C32.9274 10.856 32.1834 11.488 31.3194 12.144L29.1114 14.376H35.2794C35.4554 14.376 35.5994 14.432 35.7114 14.544C35.8394 14.656 35.9034 14.8 35.9034 14.976V17.4C35.9034 17.576 35.8394 17.72 35.7114 17.832C35.5994 17.944 35.4554 18 35.2794 18H22.9674ZM46.211 18C46.051 18 45.907 17.944 45.779 17.832C45.667 17.72 45.611 17.576 45.611 17.4V14.688H38.147C37.987 14.688 37.843 14.632 37.715 14.52C37.603 14.408 37.547 14.264 37.547 14.088V11.808C37.547 11.664 37.571 11.536 37.619 11.424C37.683 11.296 37.747 11.176 37.811 11.064L44.795 1.608C45.003 1.336 45.299 1.2 45.683 1.2H49.163C49.339 1.2 49.483 1.256 49.595 1.368C49.723 1.48 49.787 1.624 49.787 1.8V11.112H51.899C52.091 11.112 52.243 11.176 52.355 11.304C52.467 11.416 52.523 11.552 52.523 11.712V14.088C52.523 14.264 52.459 14.408 52.331 14.52C52.219 14.632 52.083 14.688 51.923 14.688H49.787V17.4C49.787 17.576 49.723 17.72 49.595 17.832C49.483 17.944 49.339 18 49.163 18H46.211ZM41.675 11.28H45.707V5.616L41.675 11.28Z" fill="#7296EE"/>
</svg>
